<?xml version="1.0" encoding="UTF-8"?>
<svg id="Livello_1" data-name="Livello 1" xmlns="http://www.w3.org/2000/svg" viewBox="0 0 1417.68 338.4">
  <defs>
    <style>
      .cls-1 {
        fill: #ec1e25;
      }

      .cls-2 {
        fill: #fefefe;
      }

      .cls-3 {
        fill: #fefbfa;
      }
    </style>
  </defs>
  <path class="cls-1" d="M1238.4,192.6c-.4-10.27.53-20.93.01-31.15-.13-2.69-.4-6.81-1.66-9.14-3.26-6.03-12.92-4.64-16.51.36-2.21,3.08-2.56,8.63-2.74,12.38-.43,9.06.35,18.46.01,27.55h-13.86s-.54-.5-.54-.54v-53.46h13.32v7.56c4.86-5.23,10.35-8.93,17.82-8.93,27.87,0,15.85,36.78,18.56,54.13.08.37-.26,1.24-.56,1.24h-13.86Z"/>
  <path class="cls-1" d="M1010.52,119.52v19.08h9.72v11.16h-9.72v27.9c0,.22.6,2.6.75,2.85,1.87,3.03,8.61-.1,8.96.21.42,3.68,1.15,7.4,1.03,11.11-6.79,2.71-19.6,3.76-23.41-4.03-1.3-2.65-1.61-7.15-1.75-10.13-.44-9.18.36-18.71.01-27.91h-6.48v-11.16h6.48v-10.62l14.4-8.46Z"/>
  <rect class="cls-1" x="966.24" y="118.08" width="15.12" height="74.52"/>
  <rect class="cls-1" x="1087.92" y="118.08" width="14.4" height="74.52"/>
  <rect class="cls-1" x="1116.72" y="138.6" width="14.4" height="54"/>
  <rect class="cls-1" x="1116.72" y="118.08" width="14.4" height="13.32"/>
  <path class="cls-1" d="M1313.64,192.6h-14.04l-1.98-5.76c-11.2,12.44-37.31,8.16-34.22-11.9,2.1-13.64,18.92-13.19,29.15-16.21,3.28-.97,4.61-.47,4.07-4.38-.8-5.8-6.19-6.53-11.2-5.99-4.58.5-6.16,2.9-8.02,6.77l-12.73-2.14c1.82-7.72,6.95-13.28,14.82-14.88,8.47-1.72,23.07-1.61,28.74,6.06,5.28,7.14.72,32.23,3.42,42.66.51,1.98,1.57,3.76,1.98,5.76ZM1296.72,166.68c-6.01,2.71-21.52,1.66-18.91,11.89,1.08,4.21,5.89,5.51,9.7,5,4.02-.54,9.21-4.85,9.21-9.15v-7.74Z"/>
  <path class="cls-1" d="M1178.28,192.6c-.53-1.6-.93-3.27-1.44-4.87-.12-.37.25-.67-.55-.54-.42.07-4.52,3.42-5.69,4.03-11.87,6.2-29.53,1.33-28.7-14.3.89-16.64,20.68-14.71,31.88-18.87,2.14-.8,1.83-1.87,1.51-4.06-.79-5.42-6.64-6.17-11.21-5.63s-5.84,3.07-8.02,6.77l-12.72-2.13c2.1-7.88,6.96-13.3,15.11-14.95,8.76-1.78,25.48-1.5,29.6,8.23,3.16,7.47.74,25.91,1.38,34.98.29,4.07,1.62,7.54,2.88,11.34h-14.04ZM1175.4,174.78c.31-2.5-.23-5.54,0-8.1-5.22,2.49-18.9,1.77-19.11,9.53-.29,10.98,17.79,9.14,19.11-1.43Z"/>
  <path class="cls-1" d="M1076.76,192.6h-14.04c-.57-1.57-.77-3.35-1.41-4.89-.14-.34.2-.64-.58-.52-.37.06-4.55,3.43-5.69,4.03-13.25,7.01-32.54-.54-28.07-17.63,3.14-12,17.88-11.92,27.62-14.5,3.92-1.04,5.98-.66,5.16-5.47-.66-3.83-3.9-4.95-7.34-5.26-5.72-.51-9.8,1.04-11.5,6.82l-12.74-2.2c1.2-7.5,6.54-12.96,13.87-14.72,8.55-2.04,25.85-1.86,30.29,7.46,3.29,6.89.97,26.13,1.55,34.81.29,4.34,1.63,7.98,2.88,12.06ZM1059.84,167.04c-3.19.59-6.52,1.2-9.65,2.05-3.86,1.04-9.33,2.09-9.45,7.14-.24,9.79,14.43,9.25,18.1,1.87.17-.35,1.01-2.77,1.01-2.95v-8.1Z"/>
  <path class="cls-1" d="M626.04,118.08c12.62.53,25.8-.7,38.35-.01,11.17.61,20.19,4.5,22.39,16.49,2.44,13.32-5.75,23.6-18.98,25.1,7.21,3.91,11.28,10.5,15.63,17.13,2.88,4.39,6.76,10.07,9.14,14.62.21.4.56.63.43,1.19h-18c-4.24-6.67-8.43-13.48-13.03-19.91-2.68-3.76-6.03-9.35-10.66-10.58-1.71-.45-7.66-1.12-9.25-.83-.3.05-.9.29-.9.54v30.78h-15.12v-74.52ZM641.16,149.4h20.7c1.29,0,4.79-.91,5.92-1.64,4.82-3.11,5.12-12.26.27-15.35-.84-.54-3.89-1.73-4.75-1.73h-22.14v18.72Z"/>
  <path class="cls-1" d="M753.86,165.57c0,15.66-12.69,28.35-28.35,28.35s-28.35-12.69-28.35-28.35,12.69-28.35,28.35-28.35,28.35,12.69,28.35,28.35ZM723.51,149.13c-15.03,2.06-15.15,31.8.99,33.02,19.47,1.48,19.16-35.78-.99-33.02Z"/>
  <path class="cls-1" d="M807.84,151.92l-13.08,2.18c-2.17-6.43-9.22-7.26-15.09-6.05-4.5.93-7.63,4.89-2.43,7.28,9.44,4.34,28.6,3.67,32.09,15.79,3.22,11.16-5.41,20.05-15.88,22.03-13.25,2.5-30.69-.77-33.85-16.03l14.4-2.16c.34,3.82,3.21,7.01,6.91,8.04s11.49.79,13.78-2.65c1.4-2.1,1.2-4.76-1.15-6.02-2.92-1.57-9.57-2.42-13.13-3.43-8.56-2.42-18.16-4.99-19-15.56-1.41-17.82,21.55-20.4,34.27-16.63,6.13,1.81,11.14,6.81,12.16,13.22Z"/>
  <path class="cls-1" d="M865.8,151.92l-13.46,2.19c-1.77-6.52-9.02-7.16-14.7-6.05-5.17,1.01-7.71,4.98-1.96,7.53,9.43,4.18,30.02,3.74,31.83,17.13,1.69,12.48-8.39,20.16-19.87,20.98-13.26.95-26.68-2.25-30.43-16.57l14.39-2.16c.87,4.17,3.34,7.12,7.55,8.12,3.77.9,13.25.65,14.03-4.36.59-3.74-1.64-4.48-4.65-5.38-9.42-2.83-27.66-4.02-29.13-16.59-1.98-16.92,14.59-20.56,27.86-19.22,9.23.93,16.25,4.99,18.55,14.39Z"/>
  <path class="cls-1" d="M927,192.6h-14.4c-.45-1.53-.81-3.46-1.41-4.89-.14-.34.21-.64-.58-.52-.36.06-4.65,3.51-5.93,4.16-11.57,5.87-28.63,1.39-28.48-13.69.18-17.28,21.82-15.87,33.47-20.01.62-6.02-1.35-8.74-7.39-9.28-5.72-.51-9.79,1.04-11.5,6.82l-12.74-2.2c1.26-7.85,7.01-13.37,14.73-14.94,8.63-1.75,25.57-1.45,29.71,8.11,1.85,4.26,1.22,10.47,1.24,14.93.06,10.45-1.36,21.96,3.25,31.51ZM909.72,167.04c-5.92,1.65-23.08,2.26-18.44,12.5,3.09,6.8,14.6,4.39,17.42-1.45.19-.39,1.02-2.73,1.02-2.94v-8.1Z"/>
  <path class="cls-1" d="M364.67,138.58l-14.75,3.62c-4.06-17.11-27.21-16.63-32.57-.35-4.01,12.16-2.75,36.77,13.77,38.76,10.88,1.32,16.95-5.59,19.37-15.41l14.4,4.33c-4,17.35-17.42,25.62-34.9,24.09-38.48-3.37-40.25-67.68-4.42-75.96,16.92-3.91,35.16,2.72,39.1,20.91Z"/>
  <path class="cls-1" d="M470.94,165.58c0,15.66-12.69,28.35-28.35,28.35s-28.35-12.69-28.35-28.35,12.69-28.35,28.35-28.35,28.35,12.69,28.35,28.35ZM440.55,149.13c-15.07,2.21-15.01,31.78.99,33.02,19.61,1.52,19.08-35.96-.99-33.02Z"/>
  <path class="cls-1" d="M528.48,154.8l-14.04,2.16c-.75-10.05-15.06-11.03-19.29-2.9-2.95,5.68-2.75,19.43,1.49,24.47,3.95,4.69,12.69,5.08,16.29-.21,1.38-2.03,1.56-4.45,2.74-6.5l13.49,2.45c-1.42,10.4-9.51,18.31-20,19.36-15.83,1.59-28.09-5.84-30.33-22.14-2.86-20.85,8.64-36.65,30.69-33.93,9.69,1.2,17.11,7.54,18.95,17.23Z"/>
  <path class="cls-1" d="M390.24,145.8c2.32-2.38,3.83-5.73,6.96-7.26,4.49-2.21,10.9-1.17,14.92,1.67l-4.25,12.06c-3.66-1.25-6.16-3.12-10.26-1.44-6.06,2.48-5.65,12.11-5.93,17.47-.04.7-.34,1.38-.37,2.15-.28,7.36.24,14.79.01,22.15h-13.86s-.54-.5-.54-.54v-53.46h13.32v7.2Z"/>
  <path class="cls-1" d="M585.72,169.56h-35.64c-1.47,12.95,16.66,19.78,20.53,5.76l13.42,2.23c.81.27.58.75.46,1.39-.91,4.94-8.11,11.53-12.71,13.23-14.59,5.39-31.26-.59-35.35-16.33-5.48-21.06,6.54-43.15,30.51-37.71,14.79,3.36,19.17,17.82,18.78,31.44ZM571.32,160.92c.54-16.81-21.38-16.77-21.24,0h21.24Z"/>
  <g>
    <path class="cls-1" d="M262.71,155.37c0,44.22-35.85,80.07-80.07,80.07s-80.07-35.85-80.07-80.07,35.85-80.07,80.07-80.07,80.07,35.85,80.07,80.07ZM260.79,155.38c0-43.16-34.99-78.15-78.15-78.15s-78.15,34.99-78.15,78.15,34.99,78.15,78.15,78.15,78.15-34.99,78.15-78.15Z"/>
    <path class="cls-3" d="M260.79,155.38c0,43.16-34.99,78.15-78.15,78.15s-78.15-34.99-78.15-78.15,34.99-78.15,78.15-78.15,78.15,34.99,78.15,78.15ZM191.88,83.88c-2.36,0-4.67-.26-7.04-.35-.45-.02-1.2-.42-1.24-.37-.61.59.94.79,1.08,1.61.33,1.91-.16,6.84-.37,9.01-.1,1.04-.32,4.16-.6,4.79-.34.76-1.37.29-1.56,1.15l7.74.74c1.24-.09,1.29-3.01,1.98-3.97-1.08-.06-.95,1.23-1.78,1.99-1.19,1.09-4.62.98-4.71-.37l.73-6.3c2.07.29,4.04.2,3.6,2.88.61,0,.69-1.2.72-1.62.11-1.36-.08-2.78,0-4.14-.78.22-.04,1.47-1.07,1.98-.88.43-2.27.08-3.24.18l.36-6.48c1.1-.06,3.99.06,4.51,1.08.41.8-.33,2.08.89,1.8v-3.6ZM180.36,83.52h-3.96c-.26,1.1.73.54,1.26,1.07,1.06,1.07.95,8.55,1.44,10.44l-7.55-10.47c-.87-.68-2,.26-3.08.04.27.68,1.2.58,1.81,1.25.38.41.62.91.69,1.47-.31,2.01,1.73,11.26,1.05,12.35-.2.31-1.45.1-1.39.77l3.96-.36c.05-.63-.79-.26-1.27-.71-1-.94-1.07-9.29-1.61-11.17l8.63,11.52c.39-2.33-2.1-14.4-1.28-15.51.35-.48,1.36-.01,1.28-.69ZM196.92,87.66c.55,4.35-.41,9.75,0,14.22.83.2.59-.15.83-.45,3.3-4.26,4.98-10.46,9.25-13.94l-3.6-.72c.16.48.64.69.73,1.28.28,1.89-4.43,7.74-5.23,9.88.17-2.13-1.36-10.28,0-11.53.48-.45,1.31-.07,1.27-.71l-4.32-1.08c-.12.11,1,2.45,1.08,3.06ZM165.96,84.96l-4.68,1.08,1.44.53c1.2,3.68,2.79,8.19,3.43,12.05.28,1.7.56,2.22-.92,3.26l4.68-1.08c-.09-.78-1.56.02-1.74-.95-.15-2.68-3.8-11.59-3.24-13.54.12-.41,1.19-1.21,1.02-1.34ZM159.84,92.16l-2.15-4.32c.41,1.78-1.37.89-2.68,1.1-6.33.99-3.58,15.39,3.63,15.69,1.45.06,4.67-1.14,5.11-2.65.68-2.34-3.53-5.76-1.38-8.02-.61.24-3.78,1.25-3.96,1.44-.9.97.9.42,1.07.51.54.25,2.89,5.24,2.88,5.8-.02,1.48-2.58,1.78-3.75,1.59-4.19-.66-8.69-13.08-2.87-13.66,1.98-.2,2.67,1.63,4.1,2.52ZM211.34,99.01c.16-.16,2.57.01,3.95-1.99,3.29-4.8-1.6-6.72-5.4-8.1.14.48.67.68.73,1.27.08.72-5.84,12.65-6.49,12.97-.26.13-2.39-.51-1.44.51.16.17,3.7,1.57,4.32,1.8-2.31-.85,1.56-7.54,1.98-7.55,2.42-.07-2.13,10.97,3.42,10.07-1.39-.72-1.39-8.65-1.06-8.98ZM142.56,95.76c-.25-.24-4.2,2.25-3.6,2.88.54-.19.8-.47,1.42-.2.65.29,8.3,10.83,8.3,11.54,0,.63-1.13,1.06-.55,1.61.4-.36,4.38-2.62,3.78-3.24-1.91,1.14-2.7-.88-3.74-2.2-1.13-1.44-5.97-7.87-6-9.14,0-.48.23-.84.38-1.26ZM228.24,99.72c-.65-.09-1.04.46-1.54.79-3.15,2.09-7.51,6.28-10.56,7.8-.79.39-1.41.49-2.29.41.43.72,1.58,1.91,2.35,2.15,1.04.33.1-1.01.22-1.54s2.52-2.3,3.07-2.35c.51-.05,3.36,2.08,3.32,2.57-1.03,1.58-.81,4.3-3.2,3.67l3.07,2.69.42-2.81,5.15-13.38ZM142.79,116.51c4.16-4.6.33-10.56-4.3-12.91-4.94-2.5-7.12,1.12-10.33,4.22.84.33,1.03-.48,1.99.15,1.14.75,7.68,7.41,8.63,8.66.89,1.17,1.02,1.4.54,2.89.93-.98,2.64-2.09,3.47-3.01ZM235.34,155.38c0-29.11-23.6-52.71-52.71-52.71s-52.71,23.6-52.71,52.71,23.6,52.71,52.71,52.71,52.71-23.6,52.71-52.71ZM232.02,119.16c-1.66.17-3.53-.12-5.22,0,.35,1.03,2.87,4.92,3.61,5.23.66.28,2.64-.54,2.87-1.27-2.21.51-2.81-1.81-3.96-3.24,3.4-.42,7.86,0,10.78-2.01,4.87-3.35,1.29-8.85-3.57-5.01,1.77-.21,4.41-.6,3.9,2.07s-6.14,4-8.4,4.23ZM125.64,116.65c-.12-.13-2.79-.98-3.23-1.45l-3.96,7.2c1.23-1.08,1.51-.67,2.76-.06,3.47,1.7,6.72,4.52,10.29,6.16l.8,2.17c.56-1.02,4.21-6.34,4.09-6.97-.09-.48-2.25-2.32-2.82-2.75.11,1.17,1.57,2.03,1.38,3.33-.09.59-1.58,3.17-2.22,3.11-.99-.09-4.23-3.01-5.62-3.24.48-1.82,1.53-3.71,3.58-2.49.57-.65-3.47-2.89-3.96-2.52,1.95,1.65.03,2.44-.37,4.32l-5.75-3.25c1.12-1.23,1.39-3.78,3.39-3.59.29.03,2.76,1.3,1.65,0ZM234,126.72c3.86.07,9.69,1.45,12.6-1.98,3.19-3.76-1.87-6.6-4.68-3.79,1.59-.49,3.92-.13,3.61,1.96-2.97,4.94-9.67,2.89-14.41,2.72.64.86,2.39,5.37,2.95,5.7.66.39,3.63-.68,3.17-1.02-2.09.34-2.74-2.05-3.24-3.6ZM131.4,132.13c-1.96-.85-13.6-4.33-14.22-5.4-.32-.55.14-1.49-.53-1.44l-1.08,3.6c.48-.17.69-.62,1.27-.73.88-.15,7.75,2.29,9.01,2.85.43.19.65-.17.51.75l-12.71,1.79-.97,2.89c1.32-.04.76-1.54,2.53-1.29,1.26.18,10.2,3.43,11.4,4.1.76.42,1.47.81.84,1.7.75,1.05,1.92-3.25,1.79-3.42-.54.13-.78.88-1.34,1.03-.6.16-8.51-2.63-9.67-3.15-.43-.19-.65.17-.51-.75,4.36-.55,8.82-1.01,13.13-1.81.58-.11.63.25.54-.7ZM253.8,138.6c-.14-.65-.71-.67-1.25-.73-4.2-.46-9.86.3-14.03-.37-.9-.14-1.28-.65-2-1.06l.72,3.6c.63.05.26-.78.71-1.26.75-.82,4.27-.39,4.62.43.13.29.71,2.61.72,2.89.03.79-4.14,3.16-4.97,1.54l.72,3.96,1.44-1.61,13.31-7.39ZM117.29,140.49c-7.67.59-8.57,7.46-1.36,10.16,3.17,1.19,8.72,1.37,10.73-1.86,3.14-5.04-5.13-8.64-9.37-8.31ZM255.96,156.6c-2.06-.32-.18-1.61-.12-3.12.28-7.88-18.39-7.91-16.35,1.78.05.26.95,2.29,1.06,2.36.66.42,5.3-.21,6.61.05,1.04.2.55,1.02,1.25,1.09v-4.32c-.67.15-.68,1.18-1.31,1.38-.56.18-4.75.53-5.35.42-1.34-.26-1.45-2.2-1.18-3.34,1.06-4.61,18.66-4.77,13.26,2.82l-2.9,1.6,2.29-.04,2.74-.67ZM110.87,152.64s-.76-.14-.71.18v4.14c1.17.3.43-.77.93-1.11.79-.54,13.92-.53,14.7,0,.5.34-.24,1.41.93,1.11v-4.32c-1.17-.3-.43.77-.93,1.11-.94.64-13.51.54-14.54-.24-.34-.26-.32-.82-.37-.87ZM126.72,158.76h-4.68s3.26,1.24,3.26,1.24c.88,1.58.76,3.5,1.06,5.24l-16.2-4.67,1.08,7.92,4.32-.37c-.18-.72-1.57-.22-2.27-.43-1.6-.48-1.31-3.6-1.69-4.97l15.66,5.03c.34-.27.45-.34.46-.79.03-2.34-1.22-5.68-1-8.2ZM243.63,160.65c-4.48.65-6.8,4.66-3.27,8.13,5.11,5.02,18.3,2.45,13.59-4.59-1.95-2.92-7.01-4.01-10.32-3.53ZM128.16,169.2c-3.38-.12-11.88,4.71-14.56,4.33-.69-.1-.92-.85-1.64-.73.55.93.62,2.14,1.05,3.09.87,1.94.58-1.02.98-1.33,1.48-1.18,7.79-2.11,9.85-3.2l-8.6,9.24c-.73.65.57,4.8,1.03,2.81.33-1.45.08-1.59,1.62-2.35,1.18-.59,9.8-3.49,10.86-3.57,1.55-.12,1.02.38,1.94,1.07,0-.94-.29-2.26-.68-3.09-.84-1.79-.59.66-.97.97-1.56,1.27-8.01,2.37-10.22,3.2l9.36-10.43ZM242.28,172.8c-.18-.19-4.34-1.24-5.04-1.44,1.05,1.7-.28,1.89-.87,2.9-1.9,3.29,2.23,5.74,5.38,5.38,2.16-.24,3.44-2.23,5.2-2.72,5.79-1.6,4.66,5.89-1.06,3.97l4.67,1.98c-.79-1.63.43-1.66,1-2.78,1.62-3.18-2.62-5.64-5.41-5.06-2.49.51-5.91,4.8-8.55,1.91-2.38-2.61,2.15-4.91,4.51-3.43.3.05.2-.68.17-.71ZM135.72,186.84c.23-.29-2.9-6.05-3.29-6.6-1.03-1.44-1.93-.85-3.41-.28-.45.17-1.11.07-1.22.76.99.16,2.77-.31,3.6.19.7.42,1.69,2.65,1.4,3.54-.12.36-5.18,3.17-5.5,3.09-.97-.23-1.91-3.55-.58-4.29-.21-.18-3.76,1.47-3.96,2.15,2.49-.57,2.6,1.07,3.6,2.88l-5.56,2.91c-1.5-2.22-2.6-3.7-.2-5.78-.68-.09-3.14,1.57-3.17,1.97s3.51,6.28,4.25,7.02l.36-1.99c3.25-1.55,6.26-3.7,9.48-5.28,1.53-.75,2.63-1.73,4.2-.3ZM234.11,182.77c-.72-.62.03-1.41-.28-2.05-.54.51-2.64,3.96-2.34,4.32.88-.62,1.04-.87,2.16-.56,3.25.89,7.83,4.79,11.15,6.15,1.09,2.2-1.88,2.77-3.59,1.98.47.8,2.89,2.1,3.6,1.64.32-.21,3.71-6.29,3.82-6.67.4-1.41-2.15-1.78-2.93-2.52.07.88,1.44,1.35,1.48,2.33.03.64-.65,2.02-1.42,1.94l-11.66-6.53ZM127.26,182.88v.36c.23-.12.23-.24,0-.36ZM226.92,190.92c-5.22,5.22,6.78,15.61,11.74,11.56,5.98-4.88-6.67-16.63-11.74-11.56ZM130.68,205.92c-.04-.76-.06-1.4.2-2.15.88-2.54,6.33-8.65,8.01-11.79.22-.4.57-.64.43-1.19l-14.04,6.32-2.15-.2c-.16.14,1.46,2.15,1.7,2.42.21.24-.02.69.82.46,0-.7-.18-1.38.36-1.99,1.11-1.26,7.89-3.29,9.72-4.32-1.11,1.5-5.23,9.07-6.66,9.2-.48.04-.83-.25-1.24-.37-.32.32,2.24,3.44,2.87,3.6ZM142.2,210.6l2.15-14.04c-2.22,1.54-8.23,11.28-10.07,11.73-.53.13-.95-.21-1.45-.21.16.64,2.85,2.87,3.24,2.51-.04-.4-.56-.59-.67-.98-.35-1.24,5.36-7.38,6.42-8.74l-2.18,13.07,2.54,1.69c-1.04-2.26-.68-2.42.58-4.29.76-1.13,6.08-7.88,6.8-8.34.86-.56,1.09-.06,1.99.03-.25-.72-2.82-2.84-3.24-2.51.12.48.69.67.72,1.25.04,1.16-5.69,7.53-6.83,8.83ZM219.24,198c-.38-.36-3.09,1.88-3.24,2.51l1.22-.28c3.47,3.06,6.05,8,9.29,11.19.32.31.3.79,1.01.6l.72-3.24c-1.33,1.34-1.85.19-2.87-.91-.82-.89-6.52-7.93-6.67-8.45-.18-.64.68-1.31.54-1.44ZM210.6,204.12c3.5-1.09,5.11,2.8,5.04,5.76-3.14-.87-5.71-1.94-5.04-5.76-1.9,2.19-.8,4.74,1.46,6.28.67.46,2.51,1,2.71,1.27.32.45-.34,2.07-.2,3.05.64,4.42,7.7,4.29,5.95-1.25-.78-2.47-3.94-3-4.11-3.27-.68-1.04,1.1-4.64-2.22-6.6-1.72-1.01-2.38-.87-3.58.52ZM154.35,204.92c-6.37,1.04-10.49,14.09-3.96,15.33,3.85.73,7.62-4.19,8.55-7.49,1.01-3.59.13-8.61-4.6-7.84ZM207.36,223.2c4.67-1.47,3.84-8.79,2.06-12.31-1-1.98-4.31-5.74-6.38-2.99-2.44,3.24,1.79,11.29,5.07,8.31.49-.45.49-1.22,1.05-1.28.48,3.06.68,6.01-1.8,8.27ZM158.8,223.27c.76-.56,1.8,1.06,2.63,1.4,6.42,2.59,11.37-10.76,6.82-14.74-1.73-1.51-3.26-1.27-5.08-.16-.28.17-2.68,2.26-1.53,2.27.33-1.32,2.16-2.19,3.42-2.19,7.05-.01,2.19,16.35-3.69,13.8-1.95-.85-1.32-3.48-1.71-5.13-.84,1.55-1.16,3.67-1.26,5.4.61.15.23-.53.4-.65ZM196.18,209.9c-.06-.05-1.37-.07-1.42-.02-.4.38.92,3.27.74,4.07-.09.4-1.84.51-.74,2.41.35-.11,1.19-.53,1.43-.36.41.29,2.14,9.4,2.53,9.72.09.08.78-.04,1.07,0,.04-1.88,2.72-12.1,1.79-12.95l-4.66,1.07c-.1-.55-.6-3.8-.74-3.94ZM184,217.04c-.23-.2-.99-5.72-1.3-5.73l-1.26,5.76h-4.68c-.6.54,3.38,3.51,3.51,4.18.23,1.19-1.35,4.05-.99,5.54l3.42-3.23,3.42,3.59c.26-1.52-1.35-4.63-1.02-5.86.19-.71,3.61-3.86,3.18-4.22-.77-.16-3.97.23-4.28-.04Z"/>
    <path class="cls-1" d="M235.34,155.38c0,29.11-23.6,52.71-52.71,52.71s-52.71-23.6-52.71-52.71,23.6-52.71,52.71-52.71,52.71,23.6,52.71,52.71ZM233.46,155.38c0-28.07-22.75-50.82-50.82-50.82s-50.82,22.75-50.82,50.82,22.75,50.82,50.82,50.82,50.82-22.75,50.82-50.82Z"/>
    <path class="cls-1" d="M184,217.04c.32.27,3.51-.12,4.28.04.43.36-2.99,3.51-3.18,4.22-.33,1.22,1.28,4.34,1.02,5.86l-3.42-3.59-3.42,3.23c-.36-1.49,1.22-4.35.99-5.54-.13-.68-4.12-3.64-3.51-4.18h4.68s1.26-5.77,1.26-5.77c.3,0,1.06,5.53,1.3,5.73Z"/>
    <path class="cls-1" d="M211.34,99.01c-.32.33-.32,8.26,1.06,8.98-5.55.9-1-10.13-3.42-10.07-.42.01-4.29,6.7-1.98,7.55-.62-.23-4.16-1.63-4.32-1.8-.96-1.02,1.18-.38,1.44-.51.65-.32,6.57-12.25,6.49-12.97-.06-.59-.59-.79-.73-1.27,3.8,1.37,8.69,3.3,5.4,8.1-1.37,2.01-3.79,1.83-3.95,1.99ZM209.55,97.52c.23.34,1.61.41,2.14.25,2.92-.87,3.93-6.66.9-6.36-.93.09-3.49,5.44-3.03,6.11Z"/>
    <path class="cls-1" d="M142.79,116.51c-.83.92-2.54,2.03-3.47,3.01.48-1.49.35-1.72-.54-2.89-.95-1.25-7.5-7.91-8.63-8.66-.96-.63-1.15.18-1.99-.15,3.21-3.09,5.39-6.72,10.33-4.22,4.63,2.35,8.45,8.31,4.3,12.91ZM133.45,104.48c-.9.21-2.49,1.41-1.89,2.44l9.19,9.56c6.86-3.07-2.12-13.19-7.3-12Z"/>
    <path class="cls-1" d="M128.16,169.2l-9.36,10.43c2.21-.82,8.66-1.93,10.22-3.2.39-.31.14-2.77.97-.97.39.83.69,2.15.68,3.09-.92-.69-.39-1.18-1.94-1.07-1.06.08-9.67,2.98-10.86,3.57-1.53.76-1.29.9-1.62,2.35-.45,1.98-1.76-2.16-1.03-2.81l8.6-9.24c-2.06,1.09-8.37,2.02-9.85,3.2-.4.31-.11,3.27-.98,1.33-.42-.95-.49-2.16-1.05-3.09.72-.12.95.63,1.64.73,2.68.38,11.18-4.45,14.56-4.33Z"/>
    <path class="cls-1" d="M131.4,132.13c.08.95.04.59-.54.7-4.32.81-8.78,1.27-13.13,1.81-.15.92.08.56.51.75,1.16.52,9.08,3.31,9.67,3.15.55-.15.79-.9,1.34-1.03.14.18-1.04,4.48-1.79,3.42.63-.89-.08-1.27-.84-1.7-1.2-.67-10.14-3.92-11.4-4.1-1.77-.26-1.21,1.25-2.53,1.29l.97-2.89,12.71-1.79c.15-.92-.08-.56-.51-.75-1.27-.57-8.13-3-9.01-2.85-.59.1-.79.56-1.27.73l1.08-3.6c.67-.05.21.89.53,1.44.63,1.07,12.26,4.55,14.22,5.4Z"/>
    <path class="cls-1" d="M154.35,204.92c4.73-.77,5.61,4.26,4.6,7.84-.93,3.3-4.7,8.22-8.55,7.49-6.54-1.24-2.42-14.29,3.96-15.33ZM157.24,206.36c-.4-.42-1.64-.51-2.22-.43-4.28.53-9.91,13.92-3.63,13.34,3.51-.33,8.22-10.46,5.85-12.91Z"/>
    <path class="cls-1" d="M142.2,210.6c1.15-1.29,6.87-7.67,6.83-8.83-.02-.58-.6-.77-.72-1.25.42-.33,2.99,1.79,3.24,2.51-.9-.09-1.13-.59-1.99-.03-.71.46-6.04,7.22-6.8,8.34-1.25,1.86-1.61,2.03-.58,4.29l-2.54-1.69,2.18-13.07c-1.07,1.36-6.77,7.49-6.42,8.74.11.39.63.58.67.98-.39.35-3.08-1.87-3.24-2.51.51,0,.92.34,1.45.21,1.84-.45,7.84-10.19,10.07-11.73l-2.15,14.04Z"/>
    <path class="cls-1" d="M243.63,160.65c3.31-.48,8.37.61,10.32,3.53,4.71,7.05-8.49,9.61-13.59,4.59-3.53-3.47-1.2-7.48,3.27-8.13ZM242.91,162.45c-2.48.36-4.27,1.7-2.75,4.37,1.64,2.87,13.83,4.56,13.84.04,0-3.93-8.24-4.81-11.09-4.4Z"/>
    <path class="cls-1" d="M180.36,83.52c.07.68-.93.21-1.28.69-.82,1.11,1.67,13.17,1.28,15.51l-8.63-11.52c.54,1.88.61,10.23,1.61,11.17.48.45,1.31.07,1.27.71l-3.96.36c-.07-.67,1.19-.46,1.39-.77.68-1.09-1.36-10.34-1.05-12.35-.07-.56-.31-1.06-.69-1.47-.61-.67-1.54-.57-1.81-1.25,1.07.22,2.21-.72,3.08-.04l7.55,10.47c-.49-1.89-.38-9.38-1.44-10.44-.53-.53-1.52.03-1.26-1.07h3.96Z"/>
    <path class="cls-1" d="M226.92,190.92c5.07-5.07,17.72,6.68,11.74,11.56-4.96,4.05-16.96-6.34-11.74-11.56ZM228.13,191.23c-.96.29-1.38,1.68-1.32,2.58.34,5.07,12.77,12.42,12.25,5.09-.24-3.41-7.61-8.69-10.93-7.67Z"/>
    <path class="cls-1" d="M255.96,156.6l-2.74.67-2.29.04,2.9-1.6c5.39-7.58-12.2-7.43-13.26-2.82-.26,1.14-.15,3.09,1.18,3.34.6.11,4.79-.24,5.35-.42.63-.2.64-1.24,1.31-1.38v4.32c-.7-.07-.21-.89-1.25-1.09-1.31-.26-5.95.37-6.61-.05-.11-.07-1-2.1-1.06-2.36-2.04-9.68,16.63-9.65,16.35-1.78-.05,1.51-1.94,2.8.12,3.12Z"/>
    <path class="cls-1" d="M159.84,92.16c-1.43-.89-2.12-2.71-4.1-2.52-5.82.58-1.33,13,2.87,13.66,1.17.19,3.73-.12,3.75-1.59,0-.55-2.35-5.54-2.88-5.8-.17-.08-1.97.47-1.07-.51.18-.19,3.35-1.2,3.96-1.44-2.15,2.25,2.06,5.68,1.38,8.02-.44,1.51-3.65,2.71-5.11,2.65-7.22-.3-9.96-14.71-3.63-15.69,1.31-.2,3.09.68,2.68-1.1l2.15,4.32Z"/>
    <path class="cls-1" d="M191.88,83.88v3.6c-1.22.28-.48-1-.9-1.8-.52-1.02-3.41-1.14-4.51-1.08l-.36,6.48c.98-.1,2.37.25,3.24-.18,1.04-.51.3-1.76,1.07-1.98-.07,1.36.11,2.78,0,4.14-.03.42-.11,1.61-.72,1.62.44-2.68-1.53-2.59-3.6-2.88l-.73,6.3c.08,1.35,3.52,1.46,4.71.37.83-.77.71-2.05,1.78-1.99-.69.96-.74,3.88-1.98,3.97l-7.74-.74c.19-.86,1.22-.39,1.56-1.15.28-.63.5-3.75.6-4.79.21-2.17.7-7.1.37-9.01-.14-.82-1.69-1.02-1.08-1.61.05-.05.8.36,1.24.37,2.36.09,4.68.34,7.04.35Z"/>
    <path class="cls-1" d="M135.72,186.84c-1.57-1.43-2.66-.45-4.2.3-3.22,1.57-6.24,3.72-9.48,5.28l-.36,1.99c-.74-.74-4.28-6.62-4.25-7.02s2.5-2.06,3.17-1.97c-2.4,2.07-1.3,3.55.2,5.78l5.56-2.91c-1-1.8-1.11-3.45-3.6-2.88.2-.68,3.75-2.33,3.96-2.15-1.33.74-.39,4.06.58,4.29.32.07,5.38-2.74,5.5-3.09.3-.89-.69-3.11-1.4-3.54-.83-.5-2.6-.03-3.6-.19.11-.69.77-.58,1.22-.76,1.47-.57,2.38-1.16,3.41.28.39.55,3.53,6.31,3.29,6.6Z"/>
    <path class="cls-1" d="M117.29,140.49c4.24-.33,12.51,3.27,9.37,8.31-2.01,3.23-7.56,3.05-10.73,1.86-7.21-2.71-6.3-9.57,1.36-10.16ZM116.92,141.94c-2.19.08-5.48,1.12-4.9,3.96.77,3.74,13.38,5.81,14.27,1.44.82-3.99-6.58-5.5-9.38-5.4Z"/>
    <path class="cls-1" d="M125.64,116.65c1.11,1.3-1.36.02-1.65,0-2-.19-2.27,2.36-3.39,3.59l5.75,3.25c.4-1.88,2.32-2.67.37-4.32.48-.37,4.52,1.87,3.96,2.52-2.05-1.22-3.1.67-3.58,2.49,1.39.23,4.63,3.14,5.62,3.24.64.06,2.13-2.52,2.22-3.11.19-1.31-1.26-2.16-1.38-3.33.57.43,2.73,2.27,2.82,2.75.12.63-3.53,5.94-4.09,6.97l-.8-2.17c-3.57-1.64-6.82-4.46-10.29-6.16-1.25-.61-1.53-1.02-2.76.06l3.96-7.2c.44.47,3.12,1.31,3.23,1.45Z"/>
    <path class="cls-1" d="M126.72,158.76c-.21,2.52,1.03,5.85,1,8.2,0,.46-.12.52-.46.79l-15.66-5.03c.37,1.37.09,4.49,1.69,4.97.7.21,2.09-.3,2.27.43l-4.32.37-1.08-7.92,16.2,4.67c-.3-1.74-.17-3.66-1.06-5.24l-3.26-1.23h4.68Z"/>
    <path class="cls-1" d="M253.8,138.6l-13.31,7.39-1.44,1.61-.72-3.96c.83,1.62,5.01-.75,4.97-1.54-.01-.28-.59-2.6-.72-2.89-.36-.82-3.87-1.25-4.62-.43-.45.48-.07,1.31-.71,1.26l-.72-3.6c.71.41,1.09.92,2,1.06,4.18.67,9.83-.1,14.03.37.54.06,1.11.08,1.25.73ZM249.84,138.6h-6.48l.91,3.25,5.57-3.25Z"/>
    <path class="cls-1" d="M228.24,99.72l-5.15,13.38-.42,2.81-3.07-2.69c2.39.63,2.16-2.1,3.2-3.67.04-.49-2.81-2.62-3.32-2.57-.55.05-2.94,1.79-3.07,2.35s.81,1.87-.22,1.54c-.77-.24-1.91-1.43-2.35-2.15.88.08,1.5-.02,2.29-.41,3.05-1.51,7.41-5.71,10.56-7.8.5-.33.89-.88,1.54-.79ZM225.36,102.6c-.7.63-4.54,2.9-4.66,3.45-.17.78,1.94,1.59,2.33,2.3.39,0,2.58-5.45,2.34-5.75Z"/>
    <path class="cls-1" d="M196.92,87.66c-.08-.61-1.2-2.95-1.08-3.06l4.32,1.08c.05.63-.78.26-1.27.71-1.35,1.25.17,9.4,0,11.53.8-2.14,5.51-7.99,5.23-9.88-.09-.59-.57-.8-.73-1.28l3.6.72c-4.27,3.48-5.95,9.68-9.25,13.94-.23.3,0,.65-.83.45-.41-4.47.55-9.87,0-14.22Z"/>
    <path class="cls-1" d="M210.6,204.12c1.21-1.39,1.87-1.53,3.58-.52,3.33,1.95,1.54,5.55,2.22,6.6.17.27,3.34.8,4.11,3.27,1.74,5.54-5.32,5.67-5.95,1.25-.14-.97.53-2.59.2-3.05-.19-.27-2.04-.82-2.71-1.27-2.26-1.54-3.36-4.08-1.46-6.28-.68,3.82,1.9,4.89,5.04,5.76.08-2.96-1.54-6.85-5.04-5.76ZM219.51,216.63c1.8-1.78-1.87-5.04-3.87-4.59-.79,2.01,1.73,6.7,3.87,4.59Z"/>
    <path class="cls-1" d="M130.68,205.92c-.63-.16-3.19-3.28-2.87-3.6.42.12.77.41,1.24.37,1.44-.13,5.55-7.69,6.66-9.2-1.83,1.03-8.61,3.06-9.72,4.32-.53.61-.36,1.28-.36,1.99-.84.23-.61-.22-.82-.46-.23-.26-1.86-2.28-1.7-2.42l2.15.2,14.04-6.32c.14.55-.21.79-.43,1.19-1.68,3.14-7.13,9.24-8.01,11.79-.26.74-.24,1.38-.2,2.15Z"/>
    <path class="cls-1" d="M196.18,209.9c.15.14.64,3.39.74,3.94l4.66-1.07c.93.84-1.75,11.07-1.79,12.95-.29-.04-.98.08-1.07,0-.39-.32-2.12-9.43-2.53-9.72-.24-.17-1.09.25-1.43.36-1.1-1.9.65-2,.74-2.41.18-.8-1.14-3.69-.74-4.07.05-.05,1.36-.04,1.42.02ZM200.88,214.56l-3.24.72,1.44,6.84c.95.09.58.02.71-.54.21-.92,1.34-6.74,1.08-7.02Z"/>
    <path class="cls-1" d="M234.11,182.77l11.66,6.53c.76.08,1.45-1.29,1.42-1.94-.04-.98-1.41-1.45-1.48-2.33.77.74,3.33,1.11,2.93,2.52-.11.38-3.49,6.47-3.82,6.67-.72.46-3.14-.84-3.6-1.64,1.71.8,4.68.23,3.59-1.98-3.31-1.36-7.9-5.26-11.15-6.15-1.12-.31-1.28-.06-2.16.56-.3-.36,1.8-3.81,2.34-4.32.32.64-.44,1.43.28,2.05Z"/>
    <path class="cls-1" d="M207.36,223.2c2.48-2.27,2.28-5.21,1.8-8.27-.56.06-.56.83-1.05,1.28-3.28,2.98-7.51-5.07-5.07-8.31,2.07-2.75,5.38,1.01,6.38,2.99,1.78,3.53,2.62,10.84-2.06,12.31ZM205.69,214.79c1.11.99,2.21,1.27,2.85-.34.61-1.52-2.23-7.25-4.55-6.76-1.5,1.73.26,5.82,1.7,7.1Z"/>
    <path class="cls-1" d="M234,126.72c.5,1.55,1.15,3.94,3.24,3.6.45.34-2.52,1.4-3.17,1.02-.56-.33-2.31-4.84-2.95-5.7,4.74.17,11.45,2.22,14.41-2.72.31-2.09-2.02-2.45-3.61-1.96,2.81-2.81,7.88.03,4.68,3.79-2.91,3.43-8.75,2.05-12.6,1.98Z"/>
    <path class="cls-1" d="M158.8,223.27c-.16.12.21.8-.4.65.1-1.72.42-3.85,1.26-5.4.39,1.65-.24,4.28,1.71,5.13,5.88,2.55,10.74-13.81,3.69-13.8-1.27,0-3.1.87-3.42,2.19-1.15-.01,1.25-2.1,1.53-2.27,1.82-1.11,3.36-1.35,5.08.16,4.55,3.98-.4,17.33-6.82,14.74-.83-.34-1.87-1.95-2.63-1.4Z"/>
    <path class="cls-1" d="M232.02,119.16c2.26-.23,7.9-1.55,8.4-4.23s-2.13-2.28-3.9-2.07c4.86-3.84,8.44,1.67,3.57,5.01-2.91,2-7.38,1.59-10.78,2.01,1.15,1.43,1.75,3.75,3.96,3.24-.23.73-2.21,1.55-2.87,1.27-.73-.31-3.26-4.2-3.61-5.23,1.69-.12,3.56.17,5.22,0Z"/>
    <path class="cls-1" d="M142.56,95.76c-.15.42-.39.78-.38,1.26.03,1.27,4.87,7.7,6,9.14,1.04,1.32,1.83,3.34,3.74,2.2.6.62-3.38,2.88-3.78,3.24-.58-.55.55-.98.55-1.61,0-.71-7.65-11.26-8.3-11.54s-.89.01-1.42.2c-.61-.63,3.35-3.12,3.6-2.88Z"/>
    <path class="cls-1" d="M165.96,84.96c.17.13-.9.93-1.02,1.34-.56,1.95,3.08,10.86,3.24,13.54.18.97,1.65.17,1.74.95l-4.68,1.08c1.48-1.04,1.2-1.55.92-3.26-.64-3.86-2.23-8.37-3.43-12.05l-1.44-.53,4.68-1.08Z"/>
    <path class="cls-1" d="M110.87,152.64c.06.05.03.62.37.87,1.03.78,13.6.88,14.54.24.5-.34-.24-1.41.93-1.11v4.32c-1.17.3-.43-.77-.93-1.11-.78-.53-13.91-.54-14.7,0-.5.34.24,1.41-.93,1.11v-4.14c-.05-.31.67-.21.71-.18Z"/>
    <path class="cls-1" d="M219.24,198c.14.13-.72.8-.54,1.44.15.52,5.85,7.56,6.67,8.45,1.01,1.1,1.54,2.25,2.87.91l-.72,3.24c-.71.18-.7-.29-1.01-.6-3.24-3.19-5.82-8.14-9.29-11.19l-1.22.28c.15-.64,2.86-2.87,3.24-2.51Z"/>
    <path class="cls-1" d="M242.28,172.8s.13.76-.17.71c-2.36-1.47-6.9.82-4.51,3.43,2.64,2.89,6.06-1.4,8.55-1.91,2.79-.58,7.03,1.88,5.41,5.06-.57,1.12-1.79,1.15-1,2.78l-4.67-1.98c5.72,1.93,6.85-5.57,1.06-3.97-1.76.49-3.04,2.47-5.2,2.72-3.15.36-7.28-2.09-5.38-5.38.59-1.02,1.92-1.21.87-2.9.7.2,4.86,1.25,5.04,1.44Z"/>
    <path class="cls-1" d="M127.26,182.88c.23.12.23.24,0,.36v-.36Z"/>
    <path class="cls-2" d="M233.46,155.38c0,28.07-22.75,50.82-50.82,50.82s-50.82-22.75-50.82-50.82,22.75-50.82,50.82-50.82,50.82,22.75,50.82,50.82ZM195.48,117h-25.56v25.56h-25.56v25.56h25.56v25.56h25.56v-25.56h25.56v-25.56h-25.56v-25.56Z"/>
    <path class="cls-3" d="M209.55,97.52c-.46-.67,2.11-6.02,3.03-6.11,3.03-.3,2.02,5.49-.9,6.36-.52.16-1.9.09-2.14-.25Z"/>
    <path class="cls-3" d="M133.45,104.48c5.18-1.19,14.16,8.93,7.3,12l-9.19-9.56c-.6-1.03.99-2.23,1.89-2.44Z"/>
    <path class="cls-3" d="M157.24,206.36c2.37,2.44-2.35,12.58-5.85,12.91-6.28.58-.65-12.81,3.63-13.34.59-.07,1.82.02,2.22.43Z"/>
    <path class="cls-3" d="M242.91,162.45c2.85-.41,11.09.48,11.09,4.4,0,4.52-12.2,2.83-13.84-.04-1.52-2.66.27-4.01,2.75-4.37Z"/>
    <path class="cls-3" d="M228.13,191.23c3.33-1.01,10.69,4.26,10.93,7.67.52,7.33-11.91-.02-12.25-5.09-.06-.91.36-2.29,1.32-2.58Z"/>
    <path class="cls-3" d="M116.92,141.94c2.79-.1,10.2,1.41,9.38,5.4-.9,4.37-13.5,2.3-14.27-1.44-.59-2.84,2.71-3.88,4.9-3.96Z"/>
    <polygon class="cls-3" points="249.84 138.6 244.27 141.85 243.36 138.6 249.84 138.6"/>
    <path class="cls-3" d="M225.36,102.6c.24.31-1.94,5.75-2.34,5.75-.39-.71-2.49-1.52-2.33-2.3.12-.56,3.96-2.83,4.66-3.45Z"/>
    <path class="cls-3" d="M219.51,216.63c-2.14,2.11-4.66-2.58-3.87-4.59,2-.45,5.67,2.81,3.87,4.59Z"/>
    <path class="cls-3" d="M200.88,214.56c.25.28-.87,6.1-1.08,7.02-.13.56.24.63-.71.54l-1.44-6.84,3.24-.72Z"/>
    <path class="cls-3" d="M205.69,214.79c-1.44-1.28-3.2-5.37-1.7-7.1,2.32-.5,5.16,5.24,4.55,6.76-.64,1.61-1.74,1.33-2.85.34Z"/>
    <polygon class="cls-1" points="195.48 117 195.48 142.56 221.04 142.56 221.04 168.12 195.48 168.12 195.48 193.68 169.92 193.68 169.92 168.12 144.36 168.12 144.36 142.56 169.92 142.56 169.92 117 195.48 117"/>
  </g>
  <path class="cls-1" d="M576.72,250.74c.29-.93,4.75-.55,5.78-.38l.69,4.88c4.43-7.52,17.95-8.03,21.42.72,4.13-5.73,11.73-8.43,18.3-4.97,2.67,1.4,5.28,5.82,5.28,8.76v28.62h-6.48c-.4-8.08.53-16.65.02-24.68-.06-.99-.26-2.96-.46-3.86-1.39-6.17-10.33-5.64-13.59-1.16-.53.72-1.8,3.6-1.8,4.32v24.84s-.5.54-.54.54h-5.76s-.54-.5-.54-.54v-27.36c0-.13-.62-1.83-.76-2.12-2.08-4.36-8.76-3.67-11.85-.76-2.75,2.58-2.95,7.29-3.18,10.86-.41,6.49.41,13.39-.06,19.93h-6.48v-37.62Z"/>
  <path class="cls-1" d="M527.75,250.55l-6.79,1.42c-2.44-9.87-12.16-13.08-21.16-9.39-10.31,4.22-11.32,19.9-8.5,29.15,4.89,16.04,27.82,14.99,30.35-1.71.28-.24,7,1.36,7.1,1.95-3.28,14.36-17.01,20.13-30.59,15.94-15.95-4.92-19.28-29.48-11.38-42.13,9.58-15.33,36.88-14.33,40.96,4.78Z"/>
  <path class="cls-1" d="M825.48,236.16v52.2h-6.12v-4.32c-8.42,9.68-22.16,4.54-25.66-6.92-2.39-7.83-1.06-20.03,6.25-24.91,6.34-4.23,14.03-3.42,19.05,2.31v-18.36h6.48ZM808.49,254.97c-12.64.99-12.29,27.03-.44,28.68s12.86-12.73,10.69-20.77c-1.26-4.65-5.2-8.3-10.25-7.91Z"/>
  <path class="cls-1" d="M706.32,288.36h-6.84l-1.26-4.68c-6.51,6.9-23.25,8.45-26.29-2.52-1.69-6.12,1.97-11.54,7.75-13.5,2.81-.95,16.99-2.33,17.82-3.42.93-1.22,0-5.59-1.12-6.81-2.73-2.95-10.98-3.02-14.17-.92-1.49.98-2.81,3.8-2.91,5.54l-6.43-.73c.74-10.64,13.33-13.01,22.02-11.4,5.79,1.08,9.17,4.11,9.65,10.15.73,9.28-1.61,19.39,1.79,28.27ZM698.04,269.28c-5.02,2.92-22.98.87-19.16,11.06,1.78,4.74,9.78,4.11,13.52,2.2,5.33-2.73,5.77-7.8,5.64-13.26Z"/>
  <path class="cls-1" d="M550.01,249.59c15.89-1.47,21.96,13.41,18.69,26.97-4.01,16.59-29.58,17.09-33.99-.36-3.04-12.06,1.55-25.33,15.3-26.61ZM551.1,254.97c-14,.68-13.69,26.36-1.76,28.55,17.52,3.22,18.2-29.34,1.76-28.55Z"/>
  <path class="cls-1" d="M748.01,249.59c15.89-1.47,21.96,13.41,18.69,26.97-4.02,16.63-29.78,17.01-33.99-.36-2.93-12.11,1.46-25.32,15.3-26.61ZM749.1,254.97c-13.95.67-13.72,26.35-1.76,28.55,17.52,3.21,18.2-29.34,1.76-28.55Z"/>
  <path class="cls-1" d="M661.32,237.6v12.6h6.12v5.4h-6.12v25.38c0,1.7,5.28,1.85,6.48,1.62-.48,3.76,2.83,5.7-2.33,6.14-3.58.3-8.47-.17-10.09-3.97-.57-1.33-.83-5.04-.92-6.64-.39-7.37.32-15.11.02-22.52-4.28.16-5.29.6-4.7-4.16.27-2.21,2.93-.93,4.7-1.24.36-.36-.5-7.86.18-9,.36-.61,5.57-3.52,6.66-3.6Z"/>
  <path class="cls-1" d="M721.8,250.2h5.94c.81,0,.81,5.4,0,5.4h-5.94v24.66c0,3.4,6.07,1.98,6.46,2.36.21.2.63,4.93.74,5.74-3.96.47-9.83,1.23-12.33-2.61-.48-.73-1.35-2.95-1.35-3.69v-26.46h-4.68v-5.4h4.68v-9.36l6.48-3.6v12.96Z"/>
  <rect class="cls-1" x="835.56" y="250.2" width="6.48" height="38.16"/>
  <rect class="cls-1" x="637.56" y="250.56" width="6.48" height="37.8"/>
  <rect class="cls-1" x="835.56" y="236.16" width="6.48" height="7.2"/>
  <rect class="cls-1" x="637.56" y="236.16" width="6.12" height="7.2"/>
  <path class="cls-1" d="M915.84,250.56l-6.61,1.41c-.42-.12-1.43-3.11-1.88-3.9-6.05-10.89-22.98-8.34-27.46,2.72-4.08,10.04-2.66,28.53,9.96,31.71,9.99,2.52,17.8-2.57,19.91-12.46l6.81,1.41c-2.5,14.33-16.01,20.44-29.52,16.74-15.54-4.26-19.55-25.43-14.22-38.69,7.59-18.86,37.68-19.83,43.01,1.07Z"/>
  <path class="cls-1" d="M1069.92,288.36h-6.3c-.78,0-1.11-3.15-1.27-3.78-.09-.39.25-.68-.54-.54-.62.11-3.15,2.18-4.13,2.71-9.09,4.88-24.01,2.48-22.3-10.42,1.51-11.41,18.37-9.17,26.2-12.14.81-6.56-2.96-9.18-9.07-9.17-5.4,0-8.4,1.79-9.82,7.09l-6.26-.75c.68-5.67,4.66-9.61,10.08-10.98,7.88-2,20.72-1.39,21.62,8.99.67,7.71-.46,15.64.35,23.41.21,2.05,1.12,3.62,1.43,5.59ZM1061.64,269.28c-4.93,3.03-19.47.77-19.47,8.82s15,7.39,18.34-.05c.29-.65,1.13-3.03,1.13-3.55v-5.22Z"/>
  <path class="cls-1" d="M938.45,249.59c15.47-.96,21.03,12.88,18.33,26.24-3.52,17.4-30.18,18.14-34.22-.13-2.7-12.22,1.95-25.25,15.89-26.11ZM947.03,257.89c-5.1-4.98-14-3.29-16.97,3.11-3.99,8.59-1.21,23.68,10.82,22.69,11.26-.93,12.66-19.46,6.16-25.81Z"/>
  <path class="cls-1" d="M1111.97,249.59c15.52-1.16,21.35,12.79,18.63,26.19-3.76,18.52-32.92,17.87-34.75-2.72-1.03-11.64,3.12-22.49,16.12-23.46ZM1112.69,254.98c-13.72.81-13.62,26.29-1.75,28.54,17.86,3.39,18.37-29.52,1.75-28.54Z"/>
  <path class="cls-1" d="M1028.49,260.25l-6.11.96c-.5-6.62-11.13-8.17-15.12-4.37s.73,6.37,4.06,7.49c6.36,2.15,17.82,2.79,18.63,11.25,1.67,17.45-30.28,18.39-31.32,1.26l6.48-1.08c.16,7.53,9.57,9.75,15.24,6.78,3.42-1.8,4.44-6.31.63-8.41-6.04-3.33-19.26-2.37-21.1-11.3-3.37-16.4,27.65-18.17,28.61-2.57Z"/>
  <path class="cls-1" d="M992.13,260.25l-6.11.96c-1.01-5.85-7.21-7.31-12.31-5.88-3.66,1.03-5.95,5.03-2.34,7.55,6.01,4.21,21.23,2.35,22.22,12.69,1.67,17.45-30.29,18.39-31.32,1.26l6.48-1.08c.16,7.53,9.57,9.75,15.24,6.78,3.42-1.8,4.44-6.31.63-8.41s-10.17-2.57-14.41-4.31c-10.94-4.48-8.22-17.55,2.86-19.81,7.84-1.6,18.4.73,19.07,10.24Z"/>
  <path class="cls-1" d="M1085.4,250.2h6.48v5.4h-6.48v22.86c0,.14.48,2.54.54,2.7,1.02,2.37,5.54.88,6.14,1.78.2.3.69,5.21.49,5.4-4.02.68-10.32,1.14-12.51-3.11-.45-.87-1.15-3.4-1.15-4.25v-25.38h-4.68c-.08-4.88-.93-5.97,4.68-5.4.35-.35-.48-7.66.18-9,.43-.89,5.31-2.98,6.3-3.96v12.96Z"/>
</svg>